# xmcd CD database file
#
# Track frame offsets:
#	150
#	16645
#	28212
#	48843
#	65536
#	80605
#	93472
#	112928
#	127459
#	145291
#	159441
#	182201
#	207561
#	231871
#
# Disc length: 3253 seconds
#
# Revision: 4
# Processed by: cddbd v1.5.2PL0 Copyright (c) Steve Scherf et al.
# Submitted via: CDex 1.50
#
DISCID=c40cb30e
DTITLE=pritor blues - pritor blues
DYEAR=1900
DGENRE=Jazz
TTITLE0=pritor blues
TTITLE1=in un palco della scala
TTITLE2=basin street blues
TTITLE3=un bacio a mezzanotte
TTITLE4=it had to be you
TTITLE5=scettico blues
TTITLE6=smoke gets in your eyes
TTITLE7=muasterioe e santa chiara
TTITLE8=doctor jazz
TTITLE9=amore baciami
TTITLE10=bourboun street parade
TTITLE11=se stasera sono qui
TTITLE12=goergia on my mind
TTITLE13=non gioco più
EXTD=
EXTT0=
EXTT1=
EXTT2=
EXTT3=
EXTT4=
EXTT5=
EXTT6=
EXTT7=
EXTT8=
EXTT9=
EXTT10=
EXTT11=
EXTT12=
EXTT13=
PLAYORDER=
